# Blender v3.3.0 OBJ File: ''
# www.blender.org
mtllib untitled.mtl
o Cube
v -1.480759 1.795634 1.982020
v -1.097703 -2.336702 -0.361380
v -4.594137 3.352988 -1.273126
v -4.211081 -7.793470e-1 -3.616526
v 2.107359 3.588090 -0.592267
v 2.490416 -0.544245 -2.935667
v -1.006018 5.145445 -3.847413
v -0.622962 1.013109 -6.190813
v -0.622962 1.1013109e+1 -6.190813
vt 0.625000 0.500000
vt 0.875000 0.500000
vt 0.875000 0.750000
vt 0.625000 0.750000
vt 0.375000 0.750000
vt 0.625000 1.000000
vt 0.375000 1.000000
vt 0.375000 0.000000
vt 0.625000 0.000000
vt 0.625000 0.250000
vt 0.375000 0.250000
vt 0.125000 0.500000
vt 0.375000 0.500000
vt 0.125000 0.750000
vn -0.0804 0.8671 0.4917
vn -0.6533 0.3268 -0.6830
vn 0.7529 0.3761 -0.5401
vn 0.0804 -0.8671 -0.4917
vn -0.7529 -0.3761 0.5401
vn 0.6533 -0.3268 0.6830
usemtl Material
s off
f 1/1/1 5/2/1 7/3/1 3/4/1
f 4//2 3//2 7//2 8//2
f 8/8 7/9 5/10 6/11
f 6 2 4 8
f 2/13/5 1/1/5 3/4/5 4/5/5
f 6/11/6 5/10/6 1/1/6 2/13/6
