# Blender v3.1.2 OBJ File: ''
# www.blender.org
mtllib cube_blender_spin_professional.mtl
o Cube
v 1.000000 1.000000 -1.000000
v 1.000000 -1.000000 -1.000000
v 1.000000 1.000000 1.000000
v 1.000000 -1.000000 1.000000
v -1.000000 1.000000 -1.000000
v -1.000000 -1.000000 -1.000000
v -1.000000 1.000000 1.000000
v -1.000000 -1.000000 1.000000
v 0.833445 1.000000 -1.142528
v 0.833445 -1.000000 -1.142528
v 1.142528 1.000000 0.833445
v 1.142528 -1.000000 0.833445
v -1.142528 1.000000 -0.833445
v -1.142528 -1.000000 -0.833445
v -0.833445 1.000000 1.142528
v -0.833445 -1.000000 1.142528
v 0.646865 1.000000 -1.257603
v 0.646865 -1.000000 -1.257603
v 1.257603 1.000000 0.646865
v 1.257603 -1.000000 0.646865
v -1.257603 1.000000 -0.646865
v -1.257603 -1.000000 -0.646865
v -0.646865 1.000000 1.257603
v -0.646865 -1.000000 1.257603
v 0.444742 1.000000 -1.342462
v 0.444742 -1.000000 -1.342462
v 1.342462 1.000000 0.444742
v 1.342462 -1.000000 0.444742
v -1.342462 1.000000 -0.444742
v -1.342462 -1.000000 -0.444742
v -0.444742 1.000000 1.342462
v -0.444742 -1.000000 1.342462
v 0.231933 1.000000 -1.395065
v 0.231933 -1.000000 -1.395065
v 1.395065 1.000000 0.231933
v 1.395065 -1.000000 0.231933
v -1.395065 1.000000 -0.231933
v -1.395065 -1.000000 -0.231933
v -0.231933 1.000000 1.395065
v -0.231933 -1.000000 1.395065
v 0.013552 1.000000 -1.414148
v 0.013552 -1.000000 -1.414148
v 1.414148 1.000000 0.013552
v 1.414148 -1.000000 0.013552
v -1.414148 1.000000 -0.013552
v -1.414148 -1.000000 -0.013552
v -0.013552 1.000000 1.414148
v -0.013552 -1.000000 1.414148
v -0.205155 1.000000 -1.399254
v -0.205155 -1.000000 -1.399254
v 1.399254 1.000000 -0.205155
v 1.399254 -1.000000 -0.205155
v -1.399254 1.000000 0.205155
v -1.399254 -1.000000 0.205155
v 0.205155 1.000000 1.399254
v 0.205155 -1.000000 1.399254
v -0.418933 1.000000 -1.350739
v -0.418933 -1.000000 -1.350739
v 1.350739 1.000000 -0.418933
v 1.350739 -1.000000 -0.418933
v -1.350739 1.000000 0.418933
v -1.350739 -1.000000 0.418933
v 0.418933 1.000000 1.350739
v 0.418933 -1.000000 1.350739
v -0.622645 1.000000 -1.269769
v -0.622645 -1.000000 -1.269769
v 1.269769 1.000000 -0.622645
v 1.269769 -1.000000 -0.622645
v -1.269769 1.000000 0.622645
v -1.269769 -1.000000 0.622645
v 0.622645 1.000000 1.269769
v 0.622645 -1.000000 1.269769
v -0.811396 1.000000 -1.158290
v -0.811396 -1.000000 -1.158290
v 1.158290 1.000000 -0.811396
v 1.158290 -1.000000 -0.811396
v -1.158290 1.000000 0.811396
v -1.158290 -1.000000 0.811396
v 0.811396 1.000000 1.158290
v 0.811396 -1.000000 1.158290
v -0.980652 1.000000 -1.018981
v -0.980652 -1.000000 -1.018981
v 1.018981 1.000000 -0.980652
v 1.018981 -1.000000 -0.980652
v -1.018981 1.000000 0.980652
v -1.018981 -1.000000 0.980652
v 0.980652 1.000000 1.018981
v 0.980652 -1.000000 1.018981
v -1.126345 1.000000 -0.855188
v -1.126345 -1.000000 -0.855188
v 0.855188 1.000000 -1.126345
v 0.855188 -1.000000 -1.126345
v -0.855188 1.000000 1.126345
v -0.855188 -1.000000 1.126345
v 1.126345 1.000000 0.855188
v 1.126345 -1.000000 0.855188
v -1.244975 1.000000 -0.670847
v -1.244975 -1.000000 -0.670847
v 0.670847 1.000000 -1.244975
v 0.670847 -1.000000 -1.244975
v -0.670847 1.000000 1.244975
v -0.670847 -1.000000 1.244975
v 1.244975 1.000000 0.670847
v 1.244975 -1.000000 0.670847
vt 0.625000 0.500000
vt 0.625000 0.750000
vt 0.875000 0.750000
vt 0.875000 0.500000
vt 0.375000 0.750000
vt 0.375000 1.000000
vt 0.625000 1.000000
vt 0.375000 0.000000
vt 0.375000 0.250000
vt 0.625000 0.250000
vt 0.625000 0.000000
vt 0.125000 0.500000
vt 0.125000 0.750000
vt 0.375000 0.500000
vt 0.625000 0.500000
vt 0.625000 0.750000
vt 0.875000 0.750000
vt 0.875000 0.500000
vt 0.375000 0.750000
vt 0.375000 1.000000
vt 0.625000 1.000000
vt 0.375000 0.000000
vt 0.375000 0.250000
vt 0.625000 0.250000
vt 0.625000 0.000000
vt 0.125000 0.500000
vt 0.125000 0.750000
vt 0.375000 0.500000
vt 0.625000 0.500000
vt 0.625000 0.750000
vt 0.875000 0.750000
vt 0.875000 0.500000
vt 0.375000 0.750000
vt 0.375000 1.000000
vt 0.625000 1.000000
vt 0.375000 0.000000
vt 0.375000 0.250000
vt 0.625000 0.250000
vt 0.625000 0.000000
vt 0.125000 0.500000
vt 0.125000 0.750000
vt 0.375000 0.500000
vt 0.625000 0.500000
vt 0.625000 0.750000
vt 0.875000 0.750000
vt 0.875000 0.500000
vt 0.375000 0.750000
vt 0.375000 1.000000
vt 0.625000 1.000000
vt 0.375000 0.000000
vt 0.375000 0.250000
vt 0.625000 0.250000
vt 0.625000 0.000000
vt 0.125000 0.500000
vt 0.125000 0.750000
vt 0.375000 0.500000
vt 0.625000 0.500000
vt 0.625000 0.750000
vt 0.875000 0.750000
vt 0.875000 0.500000
vt 0.375000 0.750000
vt 0.375000 1.000000
vt 0.625000 1.000000
vt 0.375000 0.000000
vt 0.375000 0.250000
vt 0.625000 0.250000
vt 0.625000 0.000000
vt 0.125000 0.500000
vt 0.125000 0.750000
vt 0.375000 0.500000
vt 0.625000 0.500000
vt 0.625000 0.750000
vt 0.875000 0.750000
vt 0.875000 0.500000
vt 0.375000 0.750000
vt 0.375000 1.000000
vt 0.625000 1.000000
vt 0.375000 0.000000
vt 0.375000 0.250000
vt 0.625000 0.250000
vt 0.625000 0.000000
vt 0.125000 0.500000
vt 0.125000 0.750000
vt 0.375000 0.500000
vt 0.625000 0.500000
vt 0.625000 0.750000
vt 0.875000 0.750000
vt 0.875000 0.500000
vt 0.375000 0.750000
vt 0.375000 1.000000
vt 0.625000 1.000000
vt 0.375000 0.000000
vt 0.375000 0.250000
vt 0.625000 0.250000
vt 0.625000 0.000000
vt 0.125000 0.500000
vt 0.125000 0.750000
vt 0.375000 0.500000
vt 0.625000 0.500000
vt 0.625000 0.750000
vt 0.875000 0.750000
vt 0.875000 0.500000
vt 0.375000 0.750000
vt 0.375000 1.000000
vt 0.625000 1.000000
vt 0.375000 0.000000
vt 0.375000 0.250000
vt 0.625000 0.250000
vt 0.625000 0.000000
vt 0.125000 0.500000
vt 0.125000 0.750000
vt 0.375000 0.500000
vt 0.625000 0.500000
vt 0.625000 0.750000
vt 0.875000 0.750000
vt 0.875000 0.500000
vt 0.375000 0.750000
vt 0.375000 1.000000
vt 0.625000 1.000000
vt 0.375000 0.000000
vt 0.375000 0.250000
vt 0.625000 0.250000
vt 0.625000 0.000000
vt 0.125000 0.500000
vt 0.125000 0.750000
vt 0.375000 0.500000
vt 0.625000 0.500000
vt 0.625000 0.750000
vt 0.875000 0.750000
vt 0.875000 0.500000
vt 0.375000 0.750000
vt 0.375000 1.000000
vt 0.625000 1.000000
vt 0.375000 0.000000
vt 0.375000 0.250000
vt 0.625000 0.250000
vt 0.625000 0.000000
vt 0.125000 0.500000
vt 0.125000 0.750000
vt 0.375000 0.500000
vt 0.625000 0.500000
vt 0.625000 0.750000
vt 0.875000 0.750000
vt 0.875000 0.500000
vt 0.375000 0.750000
vt 0.375000 1.000000
vt 0.625000 1.000000
vt 0.375000 0.000000
vt 0.375000 0.250000
vt 0.625000 0.250000
vt 0.625000 0.000000
vt 0.125000 0.500000
vt 0.125000 0.750000
vt 0.375000 0.500000
vt 0.625000 0.500000
vt 0.625000 0.750000
vt 0.875000 0.750000
vt 0.875000 0.500000
vt 0.375000 0.750000
vt 0.375000 1.000000
vt 0.625000 1.000000
vt 0.375000 0.000000
vt 0.375000 0.250000
vt 0.625000 0.250000
vt 0.625000 0.000000
vt 0.125000 0.500000
vt 0.125000 0.750000
vt 0.375000 0.500000
vt 0.625000 0.500000
vt 0.875000 0.500000
vt 0.875000 0.750000
vt 0.625000 0.750000
vt 0.375000 0.750000
vt 0.625000 1.000000
vt 0.375000 1.000000
vt 0.375000 0.000000
vt 0.625000 0.000000
vt 0.625000 0.250000
vt 0.375000 0.250000
vt 0.125000 0.500000
vt 0.375000 0.500000
vt 0.125000 0.750000
vn 0.0000 -1.0000 0.0000
vn 0.0000 0.0000 -1.0000
vn 1.0000 0.0000 0.0000
vn 0.0000 1.0000 0.0000
vn -1.0000 0.0000 0.0000
vn 0.0000 0.0000 1.0000
vn -0.1545 0.0000 -0.9880
vn 0.9880 0.0000 -0.1545
vn -0.9880 0.0000 0.1545
vn 0.1545 0.0000 0.9880
vn -0.3054 0.0000 -0.9522
vn 0.9522 0.0000 -0.3054
vn -0.9522 0.0000 0.3054
vn 0.3054 0.0000 0.9522
vn -0.4489 0.0000 -0.8936
vn 0.8936 0.0000 -0.4489
vn -0.8936 0.0000 0.4489
vn 0.4489 0.0000 0.8936
vn -0.5816 0.0000 -0.8135
vn 0.8135 0.0000 -0.5816
vn -0.8135 0.0000 0.5816
vn 0.5816 0.0000 0.8135
vn -0.7003 0.0000 -0.7139
vn 0.7139 0.0000 -0.7003
vn -0.7139 0.0000 0.7003
vn 0.7003 0.0000 0.7139
vn -0.8022 0.0000 -0.5970
vn 0.5970 0.0000 -0.8022
vn -0.5970 0.0000 0.8022
vn 0.8022 0.0000 0.5970
vn -0.8848 0.0000 -0.4659
vn 0.4659 0.0000 -0.8848
vn -0.4659 0.0000 0.8848
vn 0.8848 0.0000 0.4659
vn -0.9462 0.0000 -0.3236
vn 0.3236 0.0000 -0.9462
vn -0.3236 0.0000 0.9462
vn 0.9462 0.0000 0.3236
vn -0.9848 0.0000 -0.1734
vn 0.1734 0.0000 -0.9848
vn -0.1734 0.0000 0.9848
vn 0.9848 0.0000 0.1734
vn -0.9998 0.0000 -0.0192
vn 0.0192 0.0000 -0.9998
vn -0.0192 0.0000 0.9998
vn 0.9998 0.0000 0.0192
vn -0.9908 0.0000 0.1356
vn -0.1356 0.0000 -0.9908
vn 0.1356 0.0000 0.9908
vn 0.9908 0.0000 -0.1356
vn 0.9579 0.0000 -0.2871
vn 0.2871 0.0000 0.9579
vn -0.2871 0.0000 -0.9579
vn -0.9579 0.0000 0.2871
usemtl Material
s off
f 1/1/1 3/2/1 7/3/1 5/4/1
f 4/5/2 8/6/2 7/7/2 3/2/2
f 8/8/3 6/9/3 5/10/3 7/11/3
f 6/12/4 8/13/4 4/5/4 2/14/4
f 2/14/5 4/5/5 3/2/5 1/1/5
f 6/9/6 2/14/6 1/1/6 5/10/6
f 9/15/1 11/16/1 15/17/1 13/18/1
f 12/19/7 16/20/7 15/21/7 11/16/7
f 16/22/8 14/23/8 13/24/8 15/25/8
f 14/26/4 16/27/4 12/19/4 10/28/4
f 10/28/9 12/19/9 11/16/9 9/15/9
f 14/23/10 10/28/10 9/15/10 13/24/10
f 17/29/1 19/30/1 23/31/1 21/32/1
f 20/33/11 24/34/11 23/35/11 19/30/11
f 24/36/12 22/37/12 21/38/12 23/39/12
f 22/40/4 24/41/4 20/33/4 18/42/4
f 18/42/13 20/33/13 19/30/13 17/29/13
f 22/37/14 18/42/14 17/29/14 21/38/14
f 25/43/1 27/44/1 31/45/1 29/46/1
f 28/47/15 32/48/15 31/49/15 27/44/15
f 32/50/16 30/51/16 29/52/16 31/53/16
f 30/54/4 32/55/4 28/47/4 26/56/4
f 26/56/17 28/47/17 27/44/17 25/43/17
f 30/51/18 26/56/18 25/43/18 29/52/18
f 33/57/1 35/58/1 39/59/1 37/60/1
f 36/61/19 40/62/19 39/63/19 35/58/19
f 40/64/20 38/65/20 37/66/20 39/67/20
f 38/68/4 40/69/4 36/61/4 34/70/4
f 34/70/21 36/61/21 35/58/21 33/57/21
f 38/65/22 34/70/22 33/57/22 37/66/22
f 41/71/1 43/72/1 47/73/1 45/74/1
f 44/75/23 48/76/23 47/77/23 43/72/23
f 48/78/24 46/79/24 45/80/24 47/81/24
f 46/82/4 48/83/4 44/75/4 42/84/4
f 42/84/25 44/75/25 43/72/25 41/71/25
f 46/79/26 42/84/26 41/71/26 45/80/26
f 49/85/1 51/86/1 55/87/1 53/88/1
f 52/89/27 56/90/27 55/91/27 51/86/27
f 56/92/28 54/93/28 53/94/28 55/95/28
f 54/96/4 56/97/4 52/89/4 50/98/4
f 50/98/29 52/89/29 51/86/29 49/85/29
f 54/93/30 50/98/30 49/85/30 53/94/30
f 57/99/1 59/100/1 63/101/1 61/102/1
f 60/103/31 64/104/31 63/105/31 59/100/31
f 64/106/32 62/107/32 61/108/32 63/109/32
f 62/110/4 64/111/4 60/103/4 58/112/4
f 58/112/33 60/103/33 59/100/33 57/99/33
f 62/107/34 58/112/34 57/99/34 61/108/34
f 65/113/1 67/114/1 71/115/1 69/116/1
f 68/117/35 72/118/35 71/119/35 67/114/35
f 72/120/36 70/121/36 69/122/36 71/123/36
f 70/124/4 72/125/4 68/117/4 66/126/4
f 66/126/37 68/117/37 67/114/37 65/113/37
f 70/121/38 66/126/38 65/113/38 69/122/38
f 73/127/1 75/128/1 79/129/1 77/130/1
f 76/131/39 80/132/39 79/133/39 75/128/39
f 80/134/40 78/135/40 77/136/40 79/137/40
f 78/138/4 80/139/4 76/131/4 74/140/4
f 74/140/41 76/131/41 75/128/41 73/127/41
f 78/135/42 74/140/42 73/127/42 77/136/42
f 81/141/1 83/142/1 87/143/1 85/144/1
f 84/145/43 88/146/43 87/147/43 83/142/43
f 88/148/44 86/149/44 85/150/44 87/151/44
f 86/152/4 88/153/4 84/145/4 82/154/4
f 82/154/45 84/145/45 83/142/45 81/141/45
f 86/149/46 82/154/46 81/141/46 85/150/46
f 89/155/1 91/156/1 95/157/1 93/158/1
f 92/159/47 96/160/47 95/161/47 91/156/47
f 96/162/48 94/163/48 93/164/48 95/165/48
f 94/166/4 96/167/4 92/159/4 90/168/4
f 90/168/49 92/159/49 91/156/49 89/155/49
f 94/163/50 90/168/50 89/155/50 93/164/50
f 97/169/4 101/170/4 103/171/4 99/172/4
f 100/173/51 99/172/51 103/174/51 104/175/51
f 104/176/52 103/177/52 101/178/52 102/179/52
f 102/180/1 98/181/1 100/173/1 104/182/1
f 98/181/53 97/169/53 99/172/53 100/173/53
f 102/179/54 101/178/54 97/169/54 98/181/54
